<svg width="21" height="25" viewBox="0 0 21 25" fill="none" xmlns="http://www.w3.org/2000/svg">
<path d="M16.9925 11.2311L16.6843 11.6645L17.1359 11.9454C18.3892 12.7251 19.3544 13.8921 19.885 15.2695C20.4157 16.6469 20.4831 18.1597 20.0768 19.5789C19.6706 20.998 18.813 22.246 17.6339 23.134C16.4547 24.022 15.0183 24.5016 13.5422 24.5H13.5417H2.08333C1.66341 24.5 1.26068 24.3332 0.963748 24.0362C0.666814 23.7393 0.5 23.3366 0.5 22.9167V2.08333C0.5 1.66341 0.666815 1.26068 0.963747 0.963747C1.26068 0.666815 1.66341 0.5 2.08333 0.5L11.4582 0.5C11.4582 0.5 11.4583 0.5 11.4583 0.5C12.7052 0.500419 13.9278 0.843952 14.9924 1.49297C16.0571 2.14202 16.9226 3.07155 17.4941 4.17973C18.0656 5.28792 18.3211 6.53203 18.2327 7.77577C18.1442 9.01951 17.7152 10.2149 16.9925 11.2311ZM4.16667 14.0833H3.66667V14.5833V20.8333V21.3333H4.16667H13.5417C14.5031 21.3333 15.4251 20.9514 16.1049 20.2716C16.7847 19.5918 17.1667 18.6697 17.1667 17.7083C17.1667 16.7469 16.7847 15.8249 16.1049 15.1451C15.4251 14.4652 14.5031 14.0833 13.5417 14.0833H4.16667ZM4.16667 3.66667H3.66667V4.16667V10.4167V10.9167H4.16667H11.4583C12.4197 10.9167 13.3418 10.5347 14.0216 9.85493C14.7014 9.17511 15.0833 8.25308 15.0833 7.29167C15.0833 6.33026 14.7014 5.40822 14.0216 4.7284C13.3418 4.04858 12.4197 3.66667 11.4583 3.66667H4.16667Z" fill="white" stroke="white"/>
</svg>
