<svg width="39" height="36" viewBox="0 0 39 36" fill="none" xmlns="http://www.w3.org/2000/svg">
<path d="M12.0044 34.9392L0.974871 23.9097C0.649914 23.5819 0.406548 23.2211 0.244773 22.8272C0.0815909 22.4333 0 22.0253 0 21.6033C0 21.1813 0.0815909 20.7755 0.244773 20.3858C0.407955 19.9961 0.651321 19.6395 0.974871 19.316L12.7008 7.60062L6.62364 1.68387L8.26953 0L27.5897 19.3582C27.9119 19.6817 28.1517 20.039 28.3093 20.4301C28.4668 20.8212 28.5463 21.2284 28.5477 21.6519C28.5491 22.0753 28.4696 22.4825 28.3093 22.8736C28.1489 23.2647 27.9076 23.6234 27.5855 23.9498L16.596 34.9392C16.2725 35.2628 15.9159 35.5061 15.5262 35.6693C15.1365 35.8325 14.73 35.9134 14.3066 35.912C13.8831 35.9106 13.4752 35.8297 13.0827 35.6693C12.6902 35.509 12.3294 35.2656 12.0002 34.9392M14.2812 9.17688L2.74737 20.7086C2.58559 20.8718 2.47727 21.0343 2.42241 21.1961C2.36754 21.3578 2.34082 21.5196 2.34222 21.6814H26.2181C26.2181 21.5196 26.1907 21.3578 26.1358 21.1961C26.0824 21.0343 25.9748 20.8725 25.813 20.7107L14.2812 9.17688ZM34.4328 35.912C33.4382 35.912 32.6097 35.5659 31.9471 34.8738C31.2831 34.1803 30.9511 33.3306 30.9511 32.3248C30.9511 31.5652 31.1143 30.8308 31.4407 30.1218C31.767 29.4128 32.1883 28.7489 32.7046 28.1299L34.4349 26.0113L36.2686 28.1299C36.7764 28.7489 37.1956 29.4128 37.5262 30.1218C37.8568 30.8308 38.0214 31.5652 38.02 32.3248C38.02 33.3306 37.6711 34.1803 36.9734 34.8738C36.2756 35.5659 35.4288 35.912 34.4328 35.912Z" fill="black"/>
</svg>
