<svg width="20" height="20" viewBox="0 0 20 20" fill="none" xmlns="http://www.w3.org/2000/svg">
<path d="M20 12.2222V17.7778C20 18.3671 19.7659 18.9324 19.3491 19.3491C18.9324 19.7659 18.3671 20 17.7778 20H2.22222C1.63285 20 1.06762 19.7659 0.650874 19.3491C0.234126 18.9324 0 18.3671 0 17.7778V2.22222C0 1.63285 0.234126 1.06762 0.650874 0.650874C1.06762 0.234126 1.63285 0 2.22222 0H7.77778V2.22222H2.22222V17.7778H17.7778V12.2222H20Z" fill="white"/>
<path d="M20.0017 4.44444H15.5573V0H13.3351V4.44444H8.89062V6.66667H13.3351V11.1111H15.5573V6.66667H20.0017V4.44444Z" fill="white"/>
</svg>
