<svg width="29" height="33" viewBox="0 0 29 33" fill="none" xmlns="http://www.w3.org/2000/svg">
<g filter="url(#filter0_d_175_397)">
<path fill-rule="evenodd" clip-rule="evenodd" d="M11.5 0C11.7278 0 11.9464 0.0905111 12.1075 0.251622C12.2686 0.412733 12.3591 0.631246 12.3591 0.859091V14.0585L16.6202 9.79745C16.6988 9.71305 16.7937 9.64535 16.8991 9.5984C17.0044 9.55144 17.1182 9.52619 17.2335 9.52416C17.3489 9.52212 17.4635 9.54334 17.5704 9.58655C17.6774 9.62976 17.7746 9.69407 17.8562 9.77565C17.9377 9.85722 18.0021 9.9544 18.0453 10.0614C18.0885 10.1683 18.1097 10.2829 18.1077 10.3983C18.1056 10.5136 18.0804 10.6274 18.0334 10.7328C17.9865 10.8381 17.9188 10.933 17.8344 11.0116L12.1071 16.7389C11.946 16.8998 11.7277 16.9902 11.5 16.9902C11.2723 16.9902 11.054 16.8998 10.8929 16.7389L5.16564 11.0116C5.08123 10.933 5.01354 10.8381 4.96658 10.7328C4.91963 10.6274 4.89438 10.5136 4.89234 10.3983C4.89031 10.2829 4.91153 10.1683 4.95474 10.0614C4.99794 9.9544 5.06225 9.85722 5.14383 9.77565C5.22541 9.69407 5.32258 9.62976 5.42955 9.58655C5.53653 9.54334 5.65111 9.52212 5.76646 9.52416C5.88181 9.52619 5.99557 9.55144 6.10095 9.5984C6.20633 9.64535 6.30117 9.71305 6.37982 9.79745L10.6409 14.0585V0.859091C10.6409 0.631246 10.7314 0.412733 10.8925 0.251622C11.0536 0.0905111 11.2722 0 11.5 0ZM1.95455 17.0864C2.20771 17.0864 2.4505 17.1869 2.62951 17.3659C2.80853 17.545 2.90909 17.7877 2.90909 18.0409V20.9045C2.90909 21.9622 3.76055 22.8136 4.81055 22.8136H18.1837C18.6897 22.8131 19.1748 22.6118 19.5324 22.2538C19.89 21.8958 20.0909 21.4105 20.0909 20.9045V18.0409C20.0909 17.7877 20.1915 17.545 20.3705 17.3659C20.5495 17.1869 20.7923 17.0864 21.0455 17.0864C21.2986 17.0864 21.5414 17.1869 21.7204 17.3659C21.8994 17.545 22 17.7877 22 18.0409V20.9045C22 21.9169 21.598 22.8877 20.8824 23.6037C20.1667 24.3197 19.196 24.7222 18.1837 24.7227H4.81055C4.30957 24.7225 3.81355 24.6235 3.35085 24.4314C2.88815 24.2394 2.46784 23.958 2.11394 23.6034C1.76005 23.2488 1.47952 22.8279 1.28838 22.3648C1.09724 21.9017 0.999252 21.4055 1 20.9045V18.0409C1 17.7877 1.10057 17.545 1.27958 17.3659C1.4586 17.1869 1.70139 17.0864 1.95455 17.0864Z" fill="white"/>
</g>
<defs>
<filter id="filter0_d_175_397" x="0" y="0" width="29" height="32.7227" filterUnits="userSpaceOnUse" color-interpolation-filters="sRGB">
<feFlood flood-opacity="0" result="BackgroundImageFix"/>
<feColorMatrix in="SourceAlpha" type="matrix" values="0 0 0 0 0 0 0 0 0 0 0 0 0 0 0 0 0 0 127 0" result="hardAlpha"/>
<feOffset dx="3" dy="4"/>
<feGaussianBlur stdDeviation="2"/>
<feComposite in2="hardAlpha" operator="out"/>
<feColorMatrix type="matrix" values="0 0 0 0 0 0 0 0 0 0 0 0 0 0 0 0 0 0 0.25 0"/>
<feBlend mode="normal" in2="BackgroundImageFix" result="effect1_dropShadow_175_397"/>
<feBlend mode="normal" in="SourceGraphic" in2="effect1_dropShadow_175_397" result="shape"/>
</filter>
</defs>
</svg>
