<svg width="17" height="17" viewBox="0 0 17 17" fill="none" xmlns="http://www.w3.org/2000/svg">
<path d="M8.2461 15.501H4.51125C3.57897 15.501 2.68488 15.1306 2.02566 14.4714C1.36644 13.8122 0.996096 12.9181 0.996096 11.9858V9.78885M8.2461 15.501H11.9809C12.9132 15.501 13.8073 15.1306 14.4665 14.4714C15.1257 13.8122 15.4961 12.9181 15.4961 11.9858V8.25098M8.2461 15.501V10.8873C8.2461 10.1881 8.52385 9.51756 9.01827 9.02315C9.51268 8.52873 10.1833 8.25098 10.8825 8.25098H15.4961M15.4961 8.25098V4.51613C15.4961 3.58385 15.1257 2.68976 14.4665 2.03054C13.8073 1.37132 12.9132 1.00098 11.9809 1.00098H9.78397M6.70822 1.00098H1.87488C1.63234 1.00098 1.41264 1.0994 1.25358 1.25846M1.25358 1.25846C1.08876 1.42323 0.996146 1.64671 0.996096 1.87976V6.7131M1.25358 1.25846L1.87488 1.87976L6.70822 6.7131" stroke="white" stroke-width="1.5" stroke-linecap="round" stroke-linejoin="round"/>
</svg>
