<svg width="22" height="19" viewBox="0 0 22 19" fill="none" xmlns="http://www.w3.org/2000/svg">
<path d="M18.4538 10.5526L12.1335 16.874C11.7144 17.2929 11.1462 17.5283 10.5537 17.5283C9.96116 17.5283 9.39291 17.2929 8.97387 16.874L2.65353 10.5537C2.13106 10.0358 1.71604 9.41976 1.43228 8.74103C1.14852 8.06229 1.00162 7.3342 1.00001 6.59854C0.998402 5.86287 1.14211 5.13414 1.42289 4.45417C1.70368 3.7742 2.116 3.15638 2.63619 2.63619C3.15638 2.116 3.7742 1.70368 4.45417 1.42289C5.13414 1.14211 5.86287 0.998402 6.59854 1.00001C7.3342 1.00162 8.06229 1.14852 8.74103 1.43228C9.41976 1.71604 10.0358 2.13106 10.5537 2.65353C11.6057 1.62774 13.0194 1.05771 14.4887 1.06691C15.958 1.07612 17.3645 1.66382 18.4035 2.70271C19.4426 3.7416 20.0305 5.14803 20.0399 6.61731C20.0493 8.0866 19.4795 9.50044 18.4538 10.5526Z" stroke="white" stroke-width="2" stroke-linecap="round" stroke-linejoin="round"/>
</svg>
