<svg width="24" height="28" viewBox="0 0 24 28" fill="none" xmlns="http://www.w3.org/2000/svg">
<path d="M18.3312 3.5H17.9979L17.8697 3.80773L9.53844 23.8077L9.25007 24.5H10H14C14.8301 24.5 15.5 25.1699 15.5 26C15.5 26.8301 14.8301 27.5 14 27.5H2C1.16989 27.5 0.5 26.8301 0.5 26C0.5 25.1699 1.16989 24.5 2 24.5H5.66875H6.00212L6.13031 24.1923L14.4616 4.19227L14.7499 3.5H14H10C9.16989 3.5 8.5 2.83011 8.5 2C8.5 1.16989 9.16989 0.5 10 0.5H22C22.8301 0.5 23.5 1.16989 23.5 2C23.5 2.83011 22.8301 3.5 22 3.5H18.3312Z" fill="white" stroke="white"/>
</svg>
