<svg width="46" height="46" viewBox="0 0 46 46" fill="none" xmlns="http://www.w3.org/2000/svg">
<path d="M22.8448 0C10.2284 0 0 10.2284 0 22.8448C0 35.4612 10.2284 45.6897 22.8448 45.6897C35.4612 45.6897 45.6897 35.4612 45.6897 22.8448C45.6897 10.2284 35.4612 0 22.8448 0ZM36.2305 25.2453C36.2307 26.0026 35.9932 26.7409 35.5514 27.356C35.1097 27.9711 34.4861 28.432 33.7684 28.6738L11.6134 36.1412C11.2497 36.2675 10.8527 36.2583 10.4952 36.1154L24.6403 21.9694C25.4888 22.5362 26.5178 22.7672 27.5271 22.6174C28.5365 22.4677 29.4541 21.948 30.1015 21.1593C30.7489 20.3706 31.0799 19.3693 31.0301 18.3501C30.9803 17.3309 30.5533 16.3667 29.832 15.6449C29.1108 14.923 28.1469 14.4952 27.1277 14.4446C26.1086 14.394 25.107 14.7242 24.3178 15.3711C23.5286 16.0179 23.0082 16.9351 22.8576 17.9443C22.7071 18.9535 22.9373 19.9827 23.5034 20.8316L9.47971 34.8562C9.4375 34.5943 9.4608 34.3261 9.54753 34.0754L17.0149 11.9213C17.2571 11.2037 17.7183 10.5801 18.3335 10.1384C18.9487 9.69677 19.687 9.45919 20.4443 9.45919H32.6128C33.0879 9.45919 33.5584 9.55279 33.9974 9.73465C34.4364 9.91651 34.8352 10.1831 35.1712 10.5191C35.5071 10.8551 35.7736 11.254 35.9553 11.6931C36.1371 12.1321 36.2306 12.6026 36.2305 13.0778V25.2453Z" fill="black"/>
</svg>
