<svg width="46" height="46" viewBox="0 0 46 46" fill="none" xmlns="http://www.w3.org/2000/svg">
<path d="M18.5618 16.7622C18.5618 16.9621 14.9352 11.4222 14.8066 11.2651C11.951 11.9362 8.39582 12.1932 8.31015 16.0054V22.5733C8.23876 24.201 10.6375 24.6579 11.794 25.4289V19.3608C11.794 19.2839 11.8091 19.2078 11.8385 19.1367C11.868 19.0657 11.9111 19.0012 11.9654 18.9468C12.0198 18.8925 12.0843 18.8494 12.1554 18.8199C12.2264 18.7905 12.3025 18.7754 12.3794 18.7754C12.5346 18.7754 12.6835 18.837 12.7933 18.9468C12.9031 19.0566 12.9648 19.2055 12.9648 19.3608V35.6948C12.9648 36.1568 13.1483 36.5999 13.475 36.9265C13.8017 37.2532 14.2447 37.4367 14.7067 37.4367H22.2598V15.7913C21.2318 16.4338 19.8182 17.833 18.5618 16.7622Z" fill="black"/>
<path d="M19.1901 15.7059C19.2772 15.8341 19.4107 15.9236 19.5625 15.9556C19.7142 15.9875 19.8724 15.9594 20.0039 15.8772L21.9885 14.5494L16.9912 8.56689L15.4492 10.1232L15.5634 10.2803L19.1901 15.7059Z" fill="black"/>
<path d="M18.2773 8.30957L22.8463 13.7923L27.4153 8.30957H18.2773Z" fill="black"/>
<path d="M22.8448 0C18.3266 0 13.9097 1.33983 10.1529 3.85005C6.39612 6.36027 3.46804 9.92814 1.73897 14.1025C0.00989823 18.2768 -0.442505 22.8702 0.438967 27.3016C1.32044 31.7331 3.4962 35.8036 6.6911 38.9986C9.88601 42.1935 13.9566 44.3692 18.388 45.2507C22.8195 46.1322 27.4128 45.6798 31.5872 43.9507C35.7615 42.2216 39.3294 39.2935 41.8396 35.5367C44.3498 31.7799 45.6897 27.3631 45.6897 22.8448C45.6897 16.786 43.2828 10.9753 38.9986 6.69109C34.7143 2.40686 28.9037 0 22.8448 0ZM38.5506 22.5735C38.6791 25.0008 35.538 25.7433 33.896 26.6999V35.695C33.896 36.4524 33.5952 37.1787 33.0596 37.7142C32.5241 38.2498 31.7978 38.5506 31.0404 38.5506H14.7064C13.949 38.5506 13.2227 38.2498 12.6871 37.7142C12.1516 37.1787 11.8508 36.4524 11.8508 35.695V26.6999C10.166 25.7004 7.01051 25.0008 7.13902 22.5735V16.0057C7.17728 14.6412 7.71921 13.3392 8.66039 12.3506C9.60156 11.362 10.8753 10.7567 12.2363 10.6514L14.1495 10.2231C14.1195 10.1216 14.117 10.0139 14.142 9.91112C14.1671 9.80831 14.219 9.71396 14.2923 9.63766L16.6196 7.31034C16.6755 7.23029 16.7556 7.17024 16.8481 7.13901C16.9091 7.12444 16.9727 7.12444 17.0337 7.13901H28.656C28.8093 7.14811 28.9551 7.20845 29.07 7.31034L31.4116 9.63766C31.485 9.71396 31.5368 9.80831 31.5619 9.91112C31.587 10.0139 31.5844 10.1216 31.5544 10.2231L34.5956 10.937C35.7255 11.2202 36.7283 11.8728 37.4449 12.7911C38.1614 13.7095 38.5506 14.8409 38.5506 16.0057V22.5735Z" fill="black"/>
<path d="M34.2679 12.0647C33.5397 11.8648 31.6122 11.4365 30.8555 11.2651C30.7555 11.3508 27.1146 16.9763 27.0861 16.7622C25.8439 17.833 24.4446 16.4338 23.4023 15.7913V37.3796H30.984C31.4362 37.3799 31.8709 37.2042 32.1959 36.8898C32.521 36.5754 32.7111 36.1468 32.7259 35.6948V19.3608C32.7259 19.2055 32.7876 19.0566 32.8973 18.9468C33.0071 18.837 33.156 18.7754 33.3113 18.7754C33.4665 18.7754 33.6154 18.837 33.7252 18.9468C33.835 19.0566 33.8967 19.2055 33.8967 19.3608V25.3861C35.0532 24.6722 37.4519 24.1867 37.3805 22.5305V15.9626C37.3702 15.0589 37.0584 14.1846 36.4945 13.4784C35.9306 12.7722 35.1469 12.2747 34.2679 12.0647Z" fill="black"/>
<path d="M25.7001 15.9058C25.8316 15.988 25.9898 16.0161 26.1415 15.9841C26.2933 15.9522 26.4268 15.8627 26.5139 15.7345L30.1263 10.2803L30.2405 10.1232L28.6985 8.56689L23.7012 14.5637L25.7001 15.9058Z" fill="black"/>
</svg>
