<svg width="41" height="41" viewBox="0 0 41 41" fill="none" xmlns="http://www.w3.org/2000/svg">
<path d="M35.8735 0H5.12479C2.29932 0 0 2.33207 0 5.19777V34.6518H11.8263L18.2306 40.1216C18.8831 40.7089 19.7014 41 20.5145 41C21.314 41 22.1049 40.7176 22.7216 40.1614L29.295 34.6518H41V5.19777C41 2.33207 38.699 0 35.8735 0ZM22.901 24.9822C22.2382 25.6527 21.3687 25.9888 20.4991 25.9888C19.6296 25.9888 18.7601 25.6545 18.099 24.9839L12.4618 19.2664L14.8773 16.8165L18.7909 20.7859V8.66295H22.2074V20.8049L26.121 16.8165L28.5365 19.2664L22.901 24.9822Z" fill="black"/>
</svg>
