<svg width="20" height="24" viewBox="0 0 20 24" fill="none" xmlns="http://www.w3.org/2000/svg">
<path d="M7.00016 11.7996C7.00016 12.5953 6.68408 13.3584 6.12146 13.921C5.55884 14.4836 4.79575 14.7997 4.00008 14.7997C3.20441 14.7997 2.44133 14.4836 1.8787 13.921C1.31608 13.3584 1 12.5953 1 11.7996C1 11.004 1.31608 10.2409 1.8787 9.67826C2.44133 9.11564 3.20441 8.79956 4.00008 8.79956C4.79575 8.79956 5.55884 9.11564 6.12146 9.67826C6.68408 10.2409 7.00016 11.004 7.00016 11.7996Z" stroke="white" stroke-width="1.5"/>
<path d="M13.0021 5.19995L7.00195 9.40006M13.0021 18.4003L7.00195 14.2002" stroke="white" stroke-width="1.5" stroke-linecap="round"/>
<path d="M19.0002 19.6005C19.0002 20.3962 18.6841 21.1593 18.1215 21.7219C17.5588 22.2845 16.7958 22.6006 16.0001 22.6006C15.2044 22.6006 14.4413 22.2845 13.8787 21.7219C13.3161 21.1593 13 20.3962 13 19.6005C13 18.8048 13.3161 18.0418 13.8787 17.4791C14.4413 16.9165 15.2044 16.6004 16.0001 16.6004C16.7958 16.6004 17.5588 16.9165 18.1215 17.4791C18.6841 18.0418 19.0002 18.8048 19.0002 19.6005ZM19.0002 4.00008C19.0002 4.79575 18.6841 5.55884 18.1215 6.12146C17.5588 6.68408 16.7958 7.00016 16.0001 7.00016C15.2044 7.00016 14.4413 6.68408 13.8787 6.12146C13.3161 5.55884 13 4.79575 13 4.00008C13 3.20441 13.3161 2.44133 13.8787 1.8787C14.4413 1.31608 15.2044 1 16.0001 1C16.7958 1 17.5588 1.31608 18.1215 1.8787C18.6841 2.44133 19.0002 3.20441 19.0002 4.00008Z" stroke="white" stroke-width="1.5"/>
</svg>
