<svg width="27" height="27" viewBox="0 0 27 27" fill="none" xmlns="http://www.w3.org/2000/svg">
<g clip-path="url(#clip0_143_685)">
<path d="M26.2341 10.7442L24.6139 6.14858C24.1404 4.80056 23.1887 3.70248 21.934 3.05593L17.4566 0.749899C17.3533 0.697164 17.2324 0.688924 17.1231 0.727376C14.7858 1.5519 12.2375 1.55575 9.87709 0.726825C9.76751 0.688372 9.64665 0.697164 9.5442 0.749899L5.06673 3.05593C3.81209 3.70247 2.86041 4.80056 2.38717 6.14803C1.84881 7.68093 1.30316 9.21123 0.766409 10.7447C0.581842 11.2721 0.827384 11.8582 1.32122 12.0779L5.87443 14.1603C5.87443 14.1603 5.56671 24.9173 5.56606 24.9396C5.54522 25.6678 6.13948 26.297 6.87096 26.297H20.1298C20.8597 26.297 21.4636 25.6741 21.4347 24.944L21.1263 14.1603L25.6754 12.0801C26.1734 11.8582 26.4189 11.2721 26.2341 10.7442ZM16.9692 1.65878C16.7176 3.36279 15.274 4.64071 13.5004 4.64071C11.7266 4.64071 10.2828 3.36251 10.0314 1.6583C12.3034 2.36015 14.7164 2.35768 16.9692 1.65878ZM20.4613 25.3099C20.3775 25.3978 20.2602 25.4532 20.1298 25.4532C20.1298 25.4532 6.92276 25.4532 6.8711 25.4532C6.60331 25.4532 6.40171 25.2321 6.40926 24.9682L6.4517 23.4845H20.549C20.549 23.4845 20.5912 24.9613 20.5915 24.9725C20.595 25.1021 20.5449 25.2221 20.4613 25.3099ZM25.3285 11.3111L21.1001 13.2449C21.1001 13.2449 20.9939 9.53137 20.9933 9.51047C20.978 8.9743 20.1339 8.98459 20.1501 9.53457L20.2748 13.895C20.2748 13.9024 20.275 13.9095 20.2754 13.9169L20.5248 22.6407H6.47583L6.72529 13.917C6.7257 13.9095 6.72594 13.9024 6.72594 13.8949C6.72594 13.8949 6.84981 9.56364 6.85063 9.5347C6.86564 9.00997 6.02254 8.97759 6.00744 9.5104L5.90059 13.2448L1.66811 11.3089C1.56869 11.2649 1.52227 11.1391 1.5632 11.0227C2.09679 9.48925 2.65507 7.96407 3.18285 6.42874C3.58468 5.2845 4.39107 4.35341 5.4529 3.80629L9.21222 1.87019C9.55976 3.94105 11.3305 5.48446 13.5004 5.48446C15.6703 5.48446 17.4411 3.94098 17.7886 1.87009L21.5479 3.80629C22.6097 4.35341 23.4161 5.2845 23.8182 6.42928L25.4378 11.0238C25.4785 11.1391 25.4321 11.2649 25.3285 11.3111Z" fill="white" stroke="white" stroke-width="0.5"/>
<path d="M10.6875 8.01562H9.5625C9.32959 8.01562 9.14062 8.20459 9.14062 8.4375V9.56247C9.14062 10.0893 9.98438 10.1017 9.98438 9.5625V8.85938H10.6875C11.231 8.85938 11.2371 8.01562 10.6875 8.01562Z" fill="white" stroke="white" stroke-width="0.5"/>
<path d="M10.6875 19.2658H9.98438C9.98438 19.2658 9.98438 18.567 9.98438 18.5626C9.98438 18.0188 9.14062 18.0162 9.14062 18.5626V19.6876C9.14062 19.9206 9.32959 20.1095 9.5625 20.1095H10.6875C11.2101 20.1095 11.2389 19.2658 10.6875 19.2658Z" fill="white" stroke="white" stroke-width="0.5"/>
<path d="M14.0627 8.01562C14.0627 8.01562 12.947 8.01562 12.9378 8.01562C12.4002 8.01562 12.3862 8.85938 12.9377 8.85938H14.0627C14.602 8.85938 14.6164 8.01562 14.0627 8.01562Z" fill="white" stroke="white" stroke-width="0.5"/>
<path d="M9.98438 16.3127C9.98438 16.3127 9.98438 15.1912 9.98438 15.1877C9.98438 14.6481 9.14062 14.6369 9.14062 15.1877V16.3124C9.14062 16.8095 9.98438 16.8204 9.98438 16.3127Z" fill="white" stroke="white" stroke-width="0.5"/>
<path d="M9.98438 12.9375C9.98438 12.9375 9.98438 11.819 9.98438 11.8125C9.98438 11.2803 9.14062 11.2627 9.14062 11.8125V12.9373C9.14062 13.4545 9.98438 13.4586 9.98438 12.9375Z" fill="white" stroke="white" stroke-width="0.5"/>
<path d="M17.0154 18.5624V19.2655C17.0154 19.2655 16.315 19.2655 16.3123 19.2655C15.7687 19.2655 15.7627 20.1092 16.3123 20.1092H17.4373C17.6702 20.1092 17.8592 19.9203 17.8592 19.6874C17.8592 19.6874 17.8592 18.57 17.8592 18.5624C17.8592 18.0355 17.0154 18.0232 17.0154 18.5624Z" fill="white" stroke="white" stroke-width="0.5"/>
<path d="M17.438 8.01562C17.438 8.01562 16.3187 8.01562 16.313 8.01562C15.7903 8.01562 15.7616 8.85938 16.313 8.85938H17.0161V9.56247C17.0161 10.1063 17.8599 10.1089 17.8599 9.5625V8.4375C17.8599 8.20459 17.6709 8.01562 17.438 8.01562Z" fill="white" stroke="white" stroke-width="0.5"/>
<path d="M14.0622 19.2656C14.0622 19.2656 12.9449 19.2656 12.9373 19.2656C12.3979 19.2656 12.3835 20.1094 12.9372 20.1094H14.0622C14.5998 20.1094 14.6138 19.2656 14.0622 19.2656Z" fill="white" stroke="white" stroke-width="0.5"/>
<path d="M17.0156 11.8127V12.9377C17.0156 13.4773 17.8594 13.4885 17.8594 12.9377C17.8594 12.9377 17.8594 11.8328 17.8594 11.8129C17.8594 11.3159 17.0156 11.305 17.0156 11.8127Z" fill="white" stroke="white" stroke-width="0.5"/>
<path d="M17.0156 15.1877V16.3126C17.0156 16.8448 17.8594 16.8624 17.8594 16.3127C17.8594 16.3127 17.8594 15.2018 17.8594 15.1878C17.8594 14.6706 17.0156 14.6665 17.0156 15.1877Z" fill="white" stroke="white" stroke-width="0.5"/>
</g>
<defs>
<clipPath id="clip0_143_685">
<rect width="27" height="27" fill="white"/>
</clipPath>
</defs>
</svg>
