<svg width="38" height="44" viewBox="0 0 38 44" fill="none" xmlns="http://www.w3.org/2000/svg">
<path d="M37.7638 16.0432C37.1612 16.0578 36.5637 16.0681 35.9671 16.0681C33.4321 16.0675 30.8989 15.9328 28.3782 15.6646H28.3567C26.8544 15.4933 25.3779 14.7489 24.1985 13.5763C23.019 12.4036 22.2744 10.9345 22.1005 9.43979V9.41752C21.766 6.30072 21.6383 3.16538 21.7182 0.0318663C16.9807 -0.0826031 12.2408 0.1114 7.52874 0.612634C4.38212 0.976685 1.36378 3.97903 0.998759 7.10987C0.172289 14.7943 0.172289 29.0608 0.998759 36.7479C1.36378 39.8796 4.38212 42.8828 7.52874 43.246C15.229 44.0674 22.9955 44.0674 30.6958 43.246C33.8432 42.8828 36.8607 39.8796 37.2266 36.7479C37.7879 31.5107 37.9661 23.224 37.7638 16.0432ZM27.9572 21.3018C27.9572 21.6199 27.8302 21.9249 27.6042 22.1498C27.3782 22.3747 27.0716 22.5011 26.7519 22.5011C26.4323 22.5011 26.1257 22.3747 25.8997 22.1498C25.6737 21.9249 25.5467 21.6199 25.5467 21.3018V20.8444H20.3175V35.5701H21.3756C21.6952 35.5701 22.0018 35.6964 22.2278 35.9213C22.4539 36.1462 22.5808 36.4512 22.5808 36.7693C22.5808 37.0873 22.4539 37.3924 22.2278 37.6173C22.0018 37.8422 21.6952 37.9685 21.3756 37.9685H16.8489C16.5293 37.9685 16.2227 37.8422 15.9967 37.6173C15.7706 37.3924 15.6437 37.0873 15.6437 36.7693C15.6437 36.4512 15.7706 36.1462 15.9967 35.9213C16.2227 35.6964 16.5293 35.5701 16.8489 35.5701H17.907V20.8444H12.6778V21.3018C12.6778 21.6199 12.5508 21.9249 12.3248 22.1498C12.0988 22.3747 11.7922 22.5011 11.4726 22.5011C11.1529 22.5011 10.8463 22.3747 10.6203 22.1498C10.3943 21.9249 10.2673 21.6199 10.2673 21.3018V19.6452C10.2673 19.3271 10.3943 19.0221 10.6203 18.7972C10.8463 18.5723 11.1529 18.446 11.4726 18.446H26.7519C27.0716 18.446 27.3782 18.5723 27.6042 18.7972C27.8302 19.0221 27.9572 19.3271 27.9572 19.6452V21.3018Z" fill="black"/>
<path d="M28.7111 12.4261C31.7438 12.7277 34.7946 12.8436 37.8436 12.7731L37.8358 12.7617C34.236 7.70271 29.5863 3.36389 24.1597 0C24.0809 2.85231 24.2049 5.70634 24.5309 8.54342C24.7647 10.4136 26.6962 12.2109 28.7111 12.4261Z" fill="black"/>
</svg>
