<svg width="12" height="12" viewBox="0 0 12 12" fill="none" xmlns="http://www.w3.org/2000/svg">
<path fill-rule="evenodd" clip-rule="evenodd" d="M11.4187 0.581325C11.2344 0.397024 11.0156 0.250827 10.7749 0.151083C10.5341 0.0513381 10.276 0 10.0154 0C9.75478 0 9.49672 0.0513381 9.25594 0.151083C9.01517 0.250827 8.7964 0.397024 8.61213 0.581325L7.59812 1.59533C7.22868 1.41775 6.8132 1.35935 6.40912 1.4282C6.00505 1.49704 5.63235 1.68974 5.34256 1.97964L4.87094 2.45192C4.74804 2.57477 4.65055 2.72063 4.58404 2.88116C4.51752 3.0417 4.48328 3.21377 4.48328 3.38754C4.48328 3.56131 4.51752 3.73338 4.58404 3.89392C4.65055 4.05446 4.74804 4.20032 4.87094 4.32317L0.580757 8.6127C0.396519 8.79705 0.250404 9.0159 0.150757 9.25673C0.0511097 9.49756 -0.000117883 9.75567 2.0369e-07 10.0163V11.2069C2.0369e-07 11.4174 0.0836266 11.6193 0.232483 11.7682C0.381339 11.917 0.583231 12.0007 0.793745 12.0007H1.98436C2.51047 12.0002 3.01486 11.7908 3.38664 11.4186L7.67683 7.12972C7.79968 7.25262 7.94554 7.35011 8.10608 7.41663C8.26662 7.48314 8.43869 7.51738 8.61246 7.51738C8.78623 7.51738 8.9583 7.48314 9.11884 7.41663C9.27937 7.35011 9.42523 7.25262 9.54808 7.12972L10.0204 6.65678C10.3103 6.36699 10.503 5.99429 10.5718 5.59021C10.6406 5.18614 10.5822 4.77066 10.4047 4.40122L11.4187 3.38787C11.603 3.2036 11.7492 2.98483 11.8489 2.74406C11.9487 2.50328 12 2.24522 12 1.9846C12 1.72398 11.9487 1.46591 11.8489 1.22514C11.7492 0.984364 11.603 0.765594 11.4187 0.581325ZM1.51671 9.54865L5.80624 5.25846L6.74154 6.19376L2.45201 10.4839C2.32799 10.608 2.15978 10.6777 1.98436 10.6778H1.32291V10.0163C1.32295 9.84089 1.39266 9.67267 1.51671 9.54865Z" fill="#66676C"/>
</svg>
